<svg xmlns="http://www.w3.org/2000/svg" pointer-events="none" class="leaflet-zoom-animated" width="1145" height="779" viewBox="-95 -65 1145 779" style="transform: translate3d(-95px, -65px, 0px);"><g><path class="leaflet-interactive" stroke="black" stroke-opacity="1" stroke-width="2" stroke-linecap="round" stroke-linejoin="round" fill="#eee" fill-opacity="0.5" fill-rule="evenodd" d="M439 124L429 130L422 131L417 121L399 121L386 130L384 140L382 142L376 139L370 141L363 155L363 168L348 187L344 205L340 208L337 208L335 204L322 205L311 214L303 214L280 221L277 227L278 229L285 232L292 233L309 231L320 249L323 251L329 247L337 245L340 248L345 262L356 271L361 282L360 293L364 300L364 309L369 322L366 330L367 346L376 344L390 352L404 367L407 372L408 378L411 381L433 383L437 393L436 404L442 407L461 410L463 416L458 429L461 458L467 455L474 454L478 462L478 470L481 474L481 476L478 478L484 487L483 496L500 503L506 515L506 524L508 531L515 535L530 534L538 552L542 555L552 554L559 560L559 562L562 565L570 564L576 566L572 572L573 574L580 575L579 579L598 594L608 611L620 619L624 624L630 628L639 628L660 618L669 611L672 601L668 591L664 565L665 557L671 555L677 549L681 542L683 534L679 530L679 523L681 520L712 506L718 499L724 477L724 467L726 464L731 463L736 466L742 466L745 456L737 432L743 416L745 406L749 403L757 402L764 404L770 401L772 394L762 382L756 363L755 352L757 343L760 344L765 350L770 350L769 338L771 331L775 326L773 320L775 317L775 313L772 306L769 304L769 299L770 293L777 288L771 279L768 279L766 276L765 269L771 260L771 257L769 254L757 252L751 249L750 244L747 241L723 224L720 214L722 205L719 201L715 200L713 193L704 182L702 181L695 187L686 190L669 190L663 180L664 170L668 161L663 161L646 168L638 173L627 186L622 191L620 191L608 181L594 180L587 171L575 166L566 157L551 157L543 151L538 140L530 130L518 123L516 124L519 127L521 136L528 146L529 152L532 154L513 165L511 176L509 178L514 179L519 184L521 191L516 215L489 212L487 213L487 217L490 224L489 226L486 228L479 227L473 220L469 211L469 202L456 171L444 156L439 125z" data-spm-anchor-id="a2crr.b71357980.area-selector.i6.578a26c0RK0IbN" id="炉霍县"/></g></svg>